# xmcd
#
# Track frame offsets: 
#        150
#        31526
#        33610
#        48280
#        69733
#        73202
#        90303
#        106993
#        109939
#
# Disc length: 1842 seconds
#
# Revision: 4
# Processed by: cddbd v1.5.2PL0 Copyright (c) Steve Scherf et al.
# Submitted via: ExactAudioCopyFreeDBPlugin 1.0
#
DISCID=73073009
DTITLE=Curtis Mayfield - 1971 - Curtis Mayfield Live! Cd 1
DYEAR=1971
DGENRE=Blues
TTITLE0=Mighty Mighty (Spade And Whitey)
TTITLE1=Rap
TTITLE2=I Plan To Stay A Believer
TTITLE3=We're A Winner
TTITLE4=Rap
TTITLE5=We've Only Just Begun
TTITLE6=People Get Ready
TTITLE7=Rap
TTITLE8=Stare And Stare
EXTD=
EXTT0=
EXTT1=
EXTT2=
EXTT3=
EXTT4=
EXTT5=
EXTT6=
EXTT7=
EXTT8=
PLAYORDER=
